#!OML:ASF I:\Actors\actors\Patient Classification 2\Patient 1\Session 1\actor1.ASF
:FULLY-SPECIFIED
:DEGREES
709
root 0.0949622 18.6136 5.90214 2.38925 -22.8372 -7.87066
lowerback 11.6792 3.89309 -4.89577
upperback 6.26117 4.63707 2.89259
thorax -0.587421 2.15219 5.19969
lowerneck -4.85759 -7.57522 -3.43729
upperneck 29.0145 -17.4001 22.1892
head 13.0932 -6.22299 6.94044
rclavicle 5.06901e-015 2.78299e-015
rhumerus -12.5578 -4.40295 -73.064
rradius 108.451
rwrist -34.4989
rhand 21.2712 -36.2674
rfingers 7.12502
rthumb 45.7174 -59.4787
lclavicle 5.06901e-015 2.78299e-015
lhumerus -80.8114 -37.8155 110.523
lradius 97.5065
lwrist -2.974
lhand -0.0264585 -60.1054
lfingers 7.12502
lthumb 25.565 -31.801
rfemur 0 0 0
rtibia 0
rfoot 0 0
rtoes 0
lfemur -4.3853 4.70356 -10.7727
ltibia 29.6195
lfoot -29.7822 19.2559
ltoes -51.1147
710
root 0.09553 18.6094 5.92788 2.23776 -22.4723 -7.82317
lowerback 11.6339 3.85933 -4.66331
upperback 6.23349 4.62202 3.04856
thorax -0.586603 2.14907 5.23626
lowerneck -4.87263 -7.50494 -3.36343
upperneck 28.6054 -17.3975 22.7955
head 13.0008 -6.18328 7.15993
rclavicle -6.45056e-014 2.82274e-014
rhumerus -13.7423 -4.47574 -73.2128
rradius 106.661
rwrist -34.1273
rhand 19.4294 -38.2303
rfingers 7.12502
rthumb 44.0031 -62.1121
lclavicle -6.45056e-014 2.82274e-014
lhumerus -80.7016 -37.8135 110.717
lradius 97.1831
lwrist -2.95309
lhand 0.335153 -59.7722
lfingers 7.12502
lthumb 25.9114 -31.5179
rfemur 0 0 0
rtibia 0
rfoot 0 0
rtoes 0
lfemur -4.26957 4.53859 -10.8059
ltibia 29.6479
lfoot -29.7452 19.0881
ltoes -51.1791
711
root 0.0946981 18.6044 5.95022 2.07533 -22.0938 -7.76963
lowerback 11.6118 3.81095 -4.46625
upperback 6.17372 4.58367 3.21587
thorax -0.632318 2.1355 5.30547
lowerneck -4.76691 -7.42292 -3.40167
upperneck 28.1707 -17.3843 23.5199
head 12.8969 -6.15455 7.45691
rclavicle 5.70512e-014 1.59028e-015
rhumerus -14.7822 -4.52698 -73.3964
rradius 104.654
rwrist -33.6155
rhand 15.7802 -34.5318
rfingers 7.12502
rthumb 40.5855 -59.5785
lclavicle 5.70512e-014 1.59028e-015
lhumerus -80.6352 -37.7291 110.944
lradius 96.8731
lwrist -2.96183
lhand 0.531751 -59.5271
lfingers 7.12502
lthumb 26.0996 -31.3005
rfemur 0 0 0
rtibia 0
rfoot 0 0
rtoes 0
lfemur -4.14788 4.38269 -10.8289
ltibia 29.6748
lfoot -29.7116 18.8859
ltoes -51.2599
712
root 0.0927624 18.6001 5.97038 1.90721 -21.7233 -7.72536
lowerback 11.6418 3.76113 -4.29622
upperback 6.10367 4.53905 3.39382
thorax -0.718688 2.11921 5.39887
lowerneck -4.80928 -7.33759 -3.09183
upperneck 27.9535 -17.3031 23.7095
head 12.7974 -6.07522 7.47585
rclavicle -1.71949e-014 1.68967e-014
rhumerus -15.811 -4.54233 -73.5677
rradius 102.601
rwrist -33.1067
rhand 13.3269 -34.6342
rfingers 7.12502
rthumb 38.2745 -60.3582
lclavicle -1.71949e-014 1.68967e-014
lhumerus -80.5545 -37.583 111.138
lradius 96.569
lwrist -2.97934
lhand 0.51965 -59.4776
lfingers 7.12502
lthumb 26.088 -31.2493
rfemur 0 0 0
rtibia 0
rfoot 0 0
rtoes 0
lfemur -4.01071 4.24249 -10.8388
ltibia 29.6947
lfoot -29.6694 18.7055
ltoes -51.4365
713
root 0.0898346 18.5979 5.9918 1.75437 -21.3625 -7.66851
lowerback 11.6202 3.73179 -4.15035
upperback 6.05703 4.52111 3.5773
thorax -0.757921 2.11395 5.51192
lowerneck -4.95731 -7.28453 -2.88686
upperneck 27.7508 -17.2907 23.9751
head 12.7633 -6.02307 7.53509
rclavicle -1.85367e-014 4.96962e-015
rhumerus -16.8484 -4.59186 -73.6441
rradius 100.594
rwrist -32.7242
rhand 11.3312 -38.2088
rfingers 7.12502
rthumb 36.3878 -64.4291
lclavicle -1.85367e-014 4.96962e-015
lhumerus -80.4088 -37.5079 111.319
lradius 96.2196
lwrist -3.00725
lhand 0.421444 -59.5453
lfingers 7.12502
lthumb 25.994 -31.3031
rfemur 0 0 0
rtibia 0
rfoot 0 0
rtoes 0
lfemur -3.89777 4.1376 -10.8604
ltibia 29.7087
lfoot -29.5192 18.6081
ltoes -51.7955
714
root 0.0865047 18.5952 6.01426 1.59354 -21.0268 -7.62842
lowerback 11.5455 3.72719 -3.99461
upperback 6.05148 4.53802 3.77355
thorax -0.72999 2.12341 5.63253
lowerneck -5.15338 -7.2581 -2.85861
upperneck 27.5021 -17.3653 24.4886
head 12.7918 -6.00925 7.71924
rclavicle -5.86415e-015 1.08338e-014
rhumerus -17.81 -4.7466 -73.6531
rradius 98.5229
rwrist -32.1476
rhand 9.14056 -38.8529
rfingers 7.12502
rthumb 34.3107 -65.5672
lclavicle -5.86415e-015 1.08338e-014
lhumerus -80.1931 -37.5368 111.51
lradius 95.8479
lwrist -3.06527
lhand 0.189993 -59.6694
lfingers 7.12502
lthumb 25.7723 -31.3949
rfemur 0 0 0
rtibia 0
rfoot 0 0
rtoes 0
lfemur -3.75664 4.07806 -10.8552
ltibia 29.7176
lfoot -29.3276 18.4914
ltoes -52.1277
715
root 0.0841343 18.5901 6.0382 1.391 -20.7196 -7.63446
lowerback 11.5167 3.72457 -3.77785
upperback 6.04272 4.56186 3.98131
thorax -0.727835 2.13791 5.72716
lowerneck -5.30692 -7.20406 -2.56155
upperneck 27.369 -17.3426 24.6303
head 12.7614 -5.94709 7.71407
rclavicle -9.52427e-014 8.03835e-015
rhumerus -18.8373 -4.84948 -73.6019
rradius 96.6518
rwrist -31.7469
rhand 6.76661 -40.8473
rfingers 7.12502
rthumb 32.0535 -68.0425
lclavicle -9.52427e-014 8.03835e-015
lhumerus -80.0377 -37.5397 111.718
lradius 95.5176
lwrist -3.15598
lhand 0.00433188 -59.7174
lfingers 7.12502
lthumb 25.5945 -31.4173
rfemur 0 0 0
rtibia 0
rfoot 0 0
rtoes 0
lfemur -3.52654 3.97764 -10.812
ltibia 29.725
lfoot -29.2608 18.3127
ltoes -52.2232
716
root 0.0829105 18.5842 6.06342 1.17332 -20.3916 -7.6331
lowerback 11.4959 3.68722 -3.53648
upperback 6.01281 4.54218 4.18668
thorax -0.744586 2.13203 5.81024
lowerneck -5.29482 -7.12022 -2.33827
upperneck 27.1872 -17.2327 24.7603
head 12.6586 -5.87137 7.73167
rclavicle -1.0225e-014 -5.1684e-015
rhumerus -19.9162 -4.84733 -73.5118
rradius 94.6747
rwrist -31.4078
rhand 3.85811 -39.6783
rfingers 7.12502
rthumb 29.2802 -67.3935
lclavicle -1.0225e-014 -5.1684e-015
lhumerus -79.9712 -37.4392 111.937
lradius 95.2309
lwrist -3.15491
lhand 0.00679024 -59.6903
lfingers 7.12502
lthumb 25.5969 -31.3904
rfemur 0 0 0
rtibia 0
rfoot 0 0
rtoes 0
lfemur -3.29297 3.83633 -10.7889
ltibia 29.735
lfoot -29.2318 18.1499
ltoes -52.3175
717
root 0.082633 18.5793 6.08616 0.971658 -20.0013 -7.59933
lowerback 11.4884 3.63032 -3.29032
upperback 5.98298 4.49632 4.37015
thorax -0.763042 2.11325 5.87037
lowerneck -5.37552 -7.10536 -2.34104
upperneck 26.9369 -17.2654 25.1434
head 12.635 -5.86244 7.87359
rclavicle -9.64106e-014 2.38542e-015
rhumerus -20.8501 -5.06055 -73.3973
rradius 92.5997
rwrist -30.5401
rhand 2.15237 -39.4248
rfingers 7.12502
rthumb 27.6503 -67.4127
lclavicle -9.64106e-014 2.38542e-015
lhumerus -79.8789 -37.3374 112.123
lradius 94.9269
lwrist -3.18519
lhand -0.102265 -59.7472
lfingers 7.12502
lthumb 25.4924 -31.4324
rfemur 0 0 0
rtibia 0
rfoot 0 0
rtoes 0
lfemur -3.11433 3.6765 -10.8003
ltibia 29.7429
lfoot -29.1424 17.9931
ltoes -52.4587
718
root 0.0803404 18.5759 6.1064 0.789112 -19.5708 -7.55709
lowerback 11.5112 3.57273 -3.07835
upperback 5.95059 4.44541 4.53211
thorax -0.800616 2.09191 5.92622
lowerneck -5.53584 -7.11 -2.26201
upperneck 26.6855 -17.3363 25.5
head 12.6272 -5.85866 7.97987
rclavicle -1.94809e-014 2.5842e-015
rhumerus -21.6462 -5.41107 -73.3178
rradius 90.5379
rwrist -29.791
rhand 0.869229 -41.1187
rfingers 7.12502
rthumb 26.4227 -69.2972
lclavicle -1.94809e-014 2.5842e-015
lhumerus -79.7264 -37.2779 112.229
lradius 94.5968
lwrist -3.32049
lhand -0.351156 -59.9151
lfingers 7.12502
lthumb 25.254 -31.5665
rfemur 0 0 0
rtibia 0
rfoot 0 0
rtoes 0
lfemur -2.96289 3.4823 -10.8121
ltibia 29.7461
lfoot -29.0297 17.8168
ltoes -52.5745
719
root 0.0776669 18.5729 6.12755 0.619505 -19.1197 -7.50605
lowerback 11.5067 3.50494 -2.88385
upperback 5.9279 4.3794 4.68304
thorax -0.811626 2.06194 5.98429
lowerneck -5.6302 -7.03994 -1.94779
upperneck 26.4393 -17.2472 25.6293
head 12.5186 -5.78079 7.96612
rclavicle -5.80948e-014 2.98177e-014
rhumerus -22.3783 -5.7753 -73.2396
rradius 88.3932
rwrist -29.3304
rhand -0.109667 -42.7181
rfingers 7.12502
rthumb 25.4853 -71.0339
lclavicle -5.80948e-014 2.98177e-014
lhumerus -79.5706 -37.2498 112.299
lradius 94.3173
lwrist -3.32974
lhand -0.387111 -60.0169
lfingers 7.12502
lthumb 25.2195 -31.6634
rfemur 0 0 0
rtibia 0
rfoot 0 0
rtoes 0
lfemur -2.82146 3.20942 -10.8448
ltibia 29.7405
lfoot -28.9889 17.6251
ltoes -52.5898
720
root 0.076463 18.5678 6.14928 0.432526 -18.6743 -7.47019
lowerback 11.4661 3.43357 -2.6506
upperback 5.93886 4.31191 4.85592
thorax -0.766641 2.0296 6.04681
lowerneck -5.76152 -6.98051 -1.70594
upperneck 26.2145 -17.1629 25.7314
head 12.431 -5.71036 7.95394
rclavicle 4.77083e-015 -2.82274e-014
rhumerus -23.0693 -6.21034 -73.0348
rradius 86.1393
rwrist -28.47
rhand -0.187551 -43.4261
rfingers 7.12502
rthumb 25.4107 -71.7526
lclavicle 4.77083e-015 -2.82274e-014
lhumerus -79.3893 -37.212 112.4
lradius 94.0274
lwrist -3.24433
lhand -0.39576 -60.0155
lfingers 7.12502
lthumb 25.2113 -31.6608
rfemur 0 0 0
rtibia 0
rfoot 0 0
rtoes 0
lfemur -2.64751 2.92641 -10.8678
ltibia 29.7244
lfoot -29.0046 17.3912
ltoes -52.4804
721
root 0.0739991 18.5611 6.17024 0.203753 -18.2636 -7.3968
lowerback 11.4006 3.34971 -2.49025
upperback 5.96636 4.22023 5.04928
thorax -0.693873 1.9827 6.17793
lowerneck -5.82335 -6.93158 -1.7608
upperneck 25.9486 -17.0907 26.0134
head 12.3641 -5.67181 8.07457
rclavicle -5.96354e-014 -7.55382e-015
rhumerus -23.7532 -6.58612 -72.7669
rradius 83.866
rwrist -27.3229
rhand -0.460712 -42.6261
rfingers 7.12502
rthumb 25.149 -70.9895
lclavicle -5.96354e-014 -7.55382e-015
lhumerus -79.1876 -37.034 112.498
lradius 93.7123
lwrist -3.25412
lhand -0.557983 -60.0462
lfingers 7.12502
lthumb 25.0558 -31.6698
rfemur 0 0 0
rtibia 0
rfoot 0 0
rtoes 0
lfemur -2.4337 2.73322 -10.913
ltibia 29.7074
lfoot -28.9771 17.1401
ltoes -52.45
722
root 0.0706062 18.5546 6.19134 -0.0195655 -17.8541 -7.25133
lowerback 11.2852 3.26137 -2.42187
upperback 5.9789 4.1138 5.21396
thorax -0.611508 1.92738 6.33492
lowerneck -5.83045 -6.89871 -1.78565
upperneck 25.6904 -17.0199 26.219
head 12.2747 -5.64101 8.15731
rclavicle -4.46272e-014 -3.1408e-014
rhumerus -24.4275 -6.962 -72.5521
rradius 81.6507
rwrist -26.3122
rhand -1.28814 -42.0202
rfingers 7.12502
rthumb 24.356 -70.4925
lclavicle -4.46272e-014 -3.1408e-014
lhumerus -79.0378 -36.8088 112.574
lradius 93.429
lwrist -3.32967
lhand -0.643073 -60.1712
lfingers 7.12502
lthumb 24.9743 -31.7834
rfemur 0 0 0
rtibia 0
rfoot 0 0
rtoes 0
lfemur -2.2555 2.6128 -11.0278
ltibia 29.696
lfoot -28.8794 16.906
ltoes -52.5625
723
root 0.06761 18.549 6.21122 -0.170095 -17.4053 -7.12582
lowerback 11.1571 3.18929 -2.31111
upperback 5.947 4.034 5.34998
thorax -0.567384 1.88847 6.43231
lowerneck -5.91079 -6.91288 -1.6237
upperneck 25.4524 -17.025 26.3155
head 12.1957 -5.62605 8.14411
rclavicle -4.49253e-014 1.51076e-014
rhumerus -25.1407 -7.44571 -72.3206
rradius 79.5645
rwrist -25.5938
rhand -2.22121 -42.4984
rfingers 7.12502
rthumb 23.4612 -71.0879
lclavicle -4.49253e-014 1.51076e-014
lhumerus -78.9311 -36.7009 112.678
lradius 93.133
lwrist -3.3804
lhand -0.596595 -60.3617
lfingers 7.12502
lthumb 25.0188 -31.98
rfemur 0 0 0
rtibia 0
rfoot 0 0
rtoes 0
lfemur -2.16945 2.50706 -11.1161
ltibia 29.682
lfoot -28.7339 16.6492
ltoes -52.6694
